<?xml version="1.0" encoding="UTF-8" standalone="no"?>
<svg
   xmlns:dc="http://purl.org/dc/elements/1.1/"
   xmlns:cc="http://creativecommons.org/ns#"
   xmlns:rdf="http://www.w3.org/1999/02/22-rdf-syntax-ns#"
   xmlns:svg="http://www.w3.org/2000/svg"
   xmlns="http://www.w3.org/2000/svg"
   xmlns:sodipodi="http://sodipodi.sourceforge.net/DTD/sodipodi-0.dtd"
   xmlns:inkscape="http://www.inkscape.org/namespaces/inkscape"
   width="6222.0327"
   stroke-miterlimit="10"
   font-weight="normal"
   height="3579.7615"
   font-style="normal"
   font-size="12"
   id="svg2"
   version="1.1"
   inkscape:version="0.91 r13725"
   sodipodi:docname="Rivaroxaban.svg"
   style="font-style:normal;font-weight:normal;font-size:12px;font-family:Dialog;color-interpolation:auto;fill:#000000;fill-opacity:1;stroke:#000000;stroke-width:1;stroke-linecap:square;stroke-linejoin:miter;stroke-miterlimit:10;stroke-dasharray:none;stroke-dashoffset:0;stroke-opacity:1;color-rendering:auto;image-rendering:auto;shape-rendering:auto;text-rendering:auto">
  <metadata
     id="metadata221">
    <rdf:RDF>
      <cc:Work
         rdf:about="">
        <dc:format>image/svg+xml</dc:format>
        <dc:type
           rdf:resource="http://purl.org/dc/dcmitype/StillImage" />
        <dc:title></dc:title>
      </cc:Work>
    </rdf:RDF>
  </metadata>
  <sodipodi:namedview
     pagecolor="#ffffff"
     bordercolor="#666666"
     borderopacity="1"
     objecttolerance="10"
     gridtolerance="10"
     guidetolerance="10"
     inkscape:pageopacity="0"
     inkscape:pageshadow="2"
     inkscape:window-width="1366"
     inkscape:window-height="684"
     id="namedview219"
     showgrid="false"
     fit-margin-top="0"
     fit-margin-left="0"
     fit-margin-right="0"
     fit-margin-bottom="0"
     inkscape:zoom="0.046044686"
     inkscape:cx="3122.8509"
     inkscape:cy="1820.4559"
     inkscape:window-x="-8"
     inkscape:window-y="-8"
     inkscape:window-maximized="1"
     inkscape:current-layer="svg2" />
  <!--Generated by Marvin with Batik SVG Generator
MolSource:
<?xml version="1.0" encoding="windows-1252"?><cml xmlns="http://www.chemaxon.com" xmlns:xsi="http://www.w3.org/2001/XMLSchema-instance" xsi:schemaLocation="http://www.chemaxon.com/marvin/schema/mrvSchema_14_12_01.xsd" version="ChemAxon file format v14.12.01, generated by v15.5.4.0">
<MDocument><MChemicalStruct><molecule molID="m1" absStereo="true"><propertyList><property dictRef="type" title="type"><scalar>common</scalar></property></propertyList><atomArray atomID="a1 a2 a3 a4 a5 a6 a7 a8 a9 a10 a11 a12 a13 a14 a15 a16 a17 a18 a19 a20 a21 a22 a23 a24 a25 a26 a27 a28 a29" elementType="C C N C O O C C C C C C N C C O C C O C N C C S C C C Cl O" x2="-5.104630693857398 -6.13509182765004 -7.541951832419645 -7.380977998987459 -8.525421030222645 -5.874630693857398 -8.875630954247681 -8.875630954247683 -10.20931007607572 -11.542989197903754 -11.542989197903752 -10.209310076075717 -12.876668319731792 -12.876668319731793 -14.210347441559831 -15.544026563387865 -15.544026563387863 -14.210347441559826 -14.210347441559826 -3.5730669749902577 -2.803066974990281 -2.8030669749902666 -1.4693878531622468 -1.308380447432012 0.19788604927966968 0.9678899609094804 -0.06251411841499532 0.824261395455018 -4.136746096818324" y2="-19.031694030707694 -20.176137061942878 -19.549762631606146 -18.018198912739006 -16.987737778946364 -17.698014908879657 -20.319762631606146 -21.85976263160615 -22.629762631606148 -21.859762631606145 -20.319762631606146 -19.549762631606146 -22.629762631606145 -24.169762631606147 -24.939762631606143 -24.169762631606144 -22.62976263160614 -21.85976263160614 -20.319762631606142 -19.19266786413988 -20.526346985967916 -22.066346985967908 -22.836346985967918 -24.36790717587233 -24.688071953668675 -23.35438605669907 -22.210003394575512 -26.094931550680307 -22.836346985967918"></atomArray><bondArray><bond id="b1" atomRefs2="a1 a2" order="1"></bond><bond id="b2" atomRefs2="a2 a3" order="1"></bond><bond id="b3" atomRefs2="a3 a4" order="1"></bond><bond id="b4" atomRefs2="a4 a5" order="2"></bond><bond id="b5" atomRefs2="a4 a6" order="1"></bond><bond id="b6" atomRefs2="a1 a6" order="1"></bond><bond id="b7" atomRefs2="a3 a7" order="1"></bond><bond id="b8" atomRefs2="a7 a8" order="2"></bond><bond id="b9" atomRefs2="a8 a9" order="1"></bond><bond id="b10" atomRefs2="a9 a10" order="2"></bond><bond id="b11" atomRefs2="a10 a11" order="1"></bond><bond id="b12" atomRefs2="a11 a12" order="2"></bond><bond id="b13" atomRefs2="a7 a12" order="1"></bond><bond id="b14" atomRefs2="a10 a13" order="1"></bond><bond id="b15" atomRefs2="a13 a14" order="1"></bond><bond id="b16" atomRefs2="a14 a15" order="1"></bond><bond id="b17" atomRefs2="a15 a16" order="1"></bond><bond id="b18" atomRefs2="a16 a17" order="1"></bond><bond id="b19" atomRefs2="a17 a18" order="1"></bond><bond id="b20" atomRefs2="a13 a18" order="1"></bond><bond id="b21" atomRefs2="a18 a19" order="2"></bond><bond id="b22" atomRefs2="a1 a20" order="1"><bondStereo>W</bondStereo></bond><bond id="b23" atomRefs2="a20 a21" order="1"></bond><bond id="b24" atomRefs2="a21 a22" order="1"></bond><bond id="b25" atomRefs2="a22 a23" order="1"></bond><bond id="b26" atomRefs2="a24 a25" order="1"></bond><bond id="b27" atomRefs2="a25 a26" order="2"></bond><bond id="b28" atomRefs2="a26 a27" order="1"></bond><bond id="b29" atomRefs2="a23 a24" order="1"></bond><bond id="b30" atomRefs2="a23 a27" order="2"></bond><bond id="b31" atomRefs2="a25 a28" order="1"></bond><bond id="b32" atomRefs2="a22 a29" order="2"></bond></bondArray></molecule></MChemicalStruct></MDocument>
</cml>
-->
  <defs
     id="genericDefs" />
  <g
     id="g5"
     transform="translate(-189.1491,-328.69456)">
    <defs
       id="991507998787-defs1">
      <clipPath
         clipPathUnits="userSpaceOnUse"
         id="991507998879-clipPath1">
        <path
           d="m 0,0 6624,0 0,4176 L 0,4176 0,0 Z"
           id="path9"
           inkscape:connector-curvature="0" />
      </clipPath>
      <clipPath
         clipPathUnits="userSpaceOnUse"
         id="991507998418-clipPath1">
        <path
           d="m -3092.8174,-1178.9978 6624,0 0,4176 -6624,0 0,-4176 z"
           id="path12"
           inkscape:connector-curvature="0" />
      </clipPath>
      <clipPath
         clipPathUnits="userSpaceOnUse"
         id="991507998392-clipPath1">
        <path
           d="m -2725.0415,-246.96019 6624,0 0,4175.99999 -6624,0 0,-4175.99999 z"
           id="path15"
           inkscape:connector-curvature="0" />
      </clipPath>
      <clipPath
         clipPathUnits="userSpaceOnUse"
         id="991507998874-clipPath1">
        <path
           d="m -3689.3711,-505.35153 6624,0 0,4175.99993 -6624,0 0,-4175.99993 z"
           id="path18"
           inkscape:connector-curvature="0" />
      </clipPath>
      <clipPath
         clipPathUnits="userSpaceOnUse"
         id="991507998230-clipPath1">
        <path
           d="m -1152.1036,-2299.4695 6624.0001,0 0,4176 -6624.0001,0 0,-4176 z"
           id="path21"
           inkscape:connector-curvature="0" />
      </clipPath>
      <clipPath
         clipPathUnits="userSpaceOnUse"
         id="991507998537-clipPath1">
        <path
           d="m -171.74677,-2859.7053 6624.00017,0 0,4176.0001 -6624.00017,0 0,-4176.0001 z"
           id="path24"
           inkscape:connector-curvature="0" />
      </clipPath>
      <clipPath
         clipPathUnits="userSpaceOnUse"
         id="991507998436-clipPath1">
        <path
           d="m -656.92517,-1459.1157 6623.99987,0 0,4176 -6623.99987,0 0,-4176 z"
           id="path27"
           inkscape:connector-curvature="0" />
      </clipPath>
      <clipPath
         clipPathUnits="userSpaceOnUse"
         id="991507998511-clipPath1">
        <path
           d="m -4816.7739,-1534.2689 6624.0002,0 0,4175.9999 -6624.0002,0 0,-4175.9999 z"
           id="path30"
           inkscape:connector-curvature="0" />
      </clipPath>
      <clipPath
         clipPathUnits="userSpaceOnUse"
         id="991507998467-clipPath1">
        <path
           d="m -5076.7739,-1534.2689 6624.0002,0 0,4175.9999 -6624.0002,0 0,-4175.9999 z"
           id="path33"
           inkscape:connector-curvature="0" />
      </clipPath>
      <clipPath
         clipPathUnits="userSpaceOnUse"
         id="991507998666-clipPath1">
        <path
           d="m -5370.5249,-2931.7881 6623.9999,0 0,4176 -6623.9999,0 0,-4176 z"
           id="path36"
           inkscape:connector-curvature="0" />
      </clipPath>
      <clipPath
         clipPathUnits="userSpaceOnUse"
         id="991507998305-clipPath1">
        <path
           d="m -6096.3574,-3560.0615 6623.9998,0 0,4176.0001 -6623.9998,0 0,-4176.0001 z"
           id="path39"
           inkscape:connector-curvature="0" />
      </clipPath>
      <clipPath
         clipPathUnits="userSpaceOnUse"
         id="991507998688-clipPath1">
        <path
           d="m -4321.5952,-2374.6226 6624,0 0,4175.9999 -6624,0 0,-4175.9999 z"
           id="path42"
           inkscape:connector-curvature="0" />
      </clipPath>
      <clipPath
         clipPathUnits="userSpaceOnUse"
         id="991507998655-clipPath1">
        <path
           d="m 2901.2915,246.96019 c 57.2996,0 103.75,46.45045 103.75,103.74998 l 0,207.50004 c 0,57.29949 -46.4504,103.75 -103.75,103.75 l -72.5,0 c -57.2996,0 -103.75,-46.45051 -103.75,-103.75 l 0,-207.50004 c 0,-57.29953 46.4504,-103.74998 103.75,-103.74998 z m 964.3296,258.39134 c 57.2996,0 103.75,46.45047 103.75,103.74997 l 0,207.5 c 0,57.29956 -46.4504,103.75 -103.75,103.75 l -72.5,0 c -57.2996,0 -103.75,-46.45044 -103.75,-103.75 l 0,-207.5 c 0,-57.2995 46.4504,-103.74997 103.75,-103.74997 z m -616.5537,673.64627 c 57.2995,0 103.75,46.4506 103.75,103.75 l 0,207.5 c 0,57.2996 -46.4505,103.75 -103.75,103.75 l -52.5,0 c -57.2996,0 -103.75,-46.4504 -103.75,-103.75 l 0,-207.5 c 0,-57.2994 46.4504,-103.75 103.75,-103.75 z M 833.17517,1459.1157 c 57.29956,0 103.75,46.4505 103.75,103.75 l 0,207.5 c 0,57.2996 -46.45044,103.75 -103.75,103.75 l -72.5,0 c -57.29956,0 -103.75,-46.4504 -103.75,-103.75 l 0,-207.5 c 0,-57.2995 46.45044,-103.75 103.75,-103.75 z m 4399.84873,75.1532 c 57.2993,0 103.75,46.4506 103.75,103.75 l 0,207.5 c 0,57.2996 -46.4507,103.75 -103.75,103.75 l -52.5,0 c -57.2993,0 -103.7495,-46.4498 -103.75,-103.7488 l 0,0 c 0,57.299 -46.4511,103.7488 -103.75,103.7488 l -52.5,0 c -57.2998,0 -103.75,-46.4504 -103.75,-103.75 l 0,-207.5 c 0,-57.2994 46.4502,-103.75 103.75,-103.75 l 52.5,0 c 57.2993,0 103.75,46.4506 103.75,103.75 0,-57.2994 46.4502,-103.75 103.75,-103.75 z m -3924.6703,765.2006 c 57.2996,0 103.75,46.4504 103.75,103.75 l 0,207.5 c 0,57.2995 -46.4504,103.75 -103.75,103.75 l -52.5,0 c -57.2995,0 -103.75,-46.4505 -103.75,-103.75 l 0,-207.5 c 0,-57.2996 46.4505,-103.75 103.75,-103.75 z m 3189.4916,75.1531 c 57.2998,0 103.75,46.4504 103.75,103.75 l 0,207.5 c 0,57.2995 -46.4502,103.75 -103.75,103.75 l -72.5,0 c -57.2993,0 -103.75,-46.4505 -103.75,-103.75 l 0,-207.5 c 0,-57.2996 46.4507,-103.75 103.75,-103.75 z M 347.99677,2859.7053 c 57.29953,0 103.75,46.4505 103.75,103.75 l 0,207.5 c 0,57.2996 -46.45047,103.75 -103.75,103.75 l -72.5,0 c -57.29955,0 -103.75,-46.4504 -103.75,-103.75 l 0,-207.5 c 0,-57.2995 46.45045,-103.75 103.75,-103.75 z m 5158.77813,72.0828 c 57.2998,0 103.75,46.4504 103.75,103.75 l 0,207.5 c 0,57.2995 -46.4502,103.75 -103.75,103.75 l -32.5,0 c -57.2993,0 -103.75,-46.4505 -103.75,-103.75 l 0,-207.5 c 0,-57.2996 46.4507,-103.75 103.75,-103.75 z m 825.8325,628.2734 c 57.2998,0 103.75,46.4505 103.75,103.75 l 0,207.5 c 0,57.2993 -46.4502,103.75 -103.75,103.75 l -132.5,0 c -57.2993,0 -103.75,-46.4507 -103.75,-103.75 l 0,-207.5 c 0,-57.2995 46.4507,-103.75 103.75,-103.75 z M 0,0 l 0,4176 6624,0 0,-4176 z"
           id="path45"
           inkscape:connector-curvature="0" />
      </clipPath>
    </defs>
    <g
       font-size="360"
       transform="translate(3092.8173,1178.9979)"
       id="g47"
       style="font-size:360px;font-family:Arial;shape-rendering:geometricPrecision;text-rendering:optimizeLegibility">
      <text
         x="0"
         y="344"
         clip-path="url(#991507998418-clipPath1)"
         id="text49"
         style="stroke:none">N</text>
    </g>
    <g
       font-size="360"
       transform="translate(2725.0416,246.96019)"
       id="g51"
       style="font-size:360px;font-family:Arial;shape-rendering:geometricPrecision;text-rendering:optimizeLegibility">
      <text
         x="0"
         y="344"
         clip-path="url(#991507998392-clipPath1)"
         id="text53"
         style="stroke:none">O</text>
    </g>
    <g
       font-size="360"
       transform="translate(3689.3712,505.35153)"
       id="g55"
       style="font-size:360px;font-family:Arial;shape-rendering:geometricPrecision;text-rendering:optimizeLegibility">
      <text
         x="0"
         y="344"
         clip-path="url(#991507998874-clipPath1)"
         id="text57"
         style="stroke:none">O</text>
    </g>
    <g
       font-size="360"
       transform="translate(1152.1036,2299.4694)"
       id="g59"
       style="font-size:360px;font-family:Arial;shape-rendering:geometricPrecision;text-rendering:optimizeLegibility">
      <text
         x="0"
         y="344"
         clip-path="url(#991507998230-clipPath1)"
         id="text61"
         style="stroke:none">N</text>
    </g>
    <g
       font-size="360"
       transform="translate(171.74676,2859.7052)"
       id="g63"
       style="font-size:360px;font-family:Arial;shape-rendering:geometricPrecision;text-rendering:optimizeLegibility">
      <text
         x="0"
         y="344"
         clip-path="url(#991507998537-clipPath1)"
         id="text65"
         style="stroke:none">O</text>
    </g>
    <g
       font-size="360"
       transform="translate(656.92518,1459.1158)"
       id="g67"
       style="font-size:360px;font-family:Arial;shape-rendering:geometricPrecision;text-rendering:optimizeLegibility">
      <text
         x="0"
         y="344"
         clip-path="url(#991507998436-clipPath1)"
         id="text69"
         style="stroke:none">O</text>
    </g>
    <g
       font-size="360"
       transform="translate(4816.7737,1534.269)"
       id="g71"
       style="font-size:360px;font-family:Arial;shape-rendering:geometricPrecision;text-rendering:optimizeLegibility">
      <text
         x="0"
         y="344"
         clip-path="url(#991507998511-clipPath1)"
         id="text73"
         style="stroke:none">N</text>
    </g>
    <g
       font-size="360"
       transform="translate(5076.7737,1534.269)"
       id="g75"
       style="font-size:360px;font-family:Arial;shape-rendering:geometricPrecision;text-rendering:optimizeLegibility">
      <text
         x="0"
         y="344"
         clip-path="url(#991507998467-clipPath1)"
         id="text77"
         style="stroke:none">H</text>
    </g>
    <g
       font-size="360"
       transform="translate(5370.525,2931.7881)"
       id="g79"
       style="font-size:360px;font-family:Arial;shape-rendering:geometricPrecision;text-rendering:optimizeLegibility">
      <text
         x="0"
         y="344"
         clip-path="url(#991507998666-clipPath1)"
         id="text81"
         style="stroke:none">S</text>
    </g>
    <g
       font-size="360"
       transform="translate(6096.3576,3560.0614)"
       id="g83"
       style="font-size:360px;font-family:Arial;shape-rendering:geometricPrecision;text-rendering:optimizeLegibility">
      <text
         x="0"
         y="344"
         clip-path="url(#991507998305-clipPath1)"
         id="text85"
         style="stroke:none">Cl</text>
    </g>
    <g
       font-size="360"
       transform="translate(4321.5953,2374.6227)"
       id="g87"
       style="font-size:360px;font-family:Arial;shape-rendering:geometricPrecision;text-rendering:optimizeLegibility">
      <text
         x="0"
         y="344"
         clip-path="url(#991507998688-clipPath1)"
         id="text89"
         style="stroke:none">O</text>
    </g>
    <g
       font-size="360"
       id="g91"
       style="font-size:360px;font-family:Arial;shape-rendering:geometricPrecision;text-rendering:optimizeLegibility">
      <path
         d="m 4100.8379,1190.2405 -374.8709,416.3363 c -4.3029,4.7788 -3.9172,12.1377 0.8616,16.4407 4.7788,4.3028 12.138,3.9171 16.4407,-0.8617 l 374.8708,-416.3363 c 4.3033,-4.7789 3.9175,-12.1379 -0.8613,-16.4407 -4.7788,-4.3029 -12.1382,-3.9173 -16.4409,0.8617 z"
         clip-path="url(#991507998655-clipPath1)"
         id="path93"
         inkscape:connector-curvature="0"
         style="stroke:none" />
    </g>
    <g
       font-size="360"
       id="g95"
       style="font-size:360px;font-family:Arial;shape-rendering:geometricPrecision;text-rendering:optimizeLegibility">
      <path
         d="m 3739.353,1603.7314 -362.886,-161.5672 c -5.8747,-2.6156 -12.7544,0.025 -15.3698,5.8998 -2.6155,5.8746 0.025,12.7542 5.8999,15.3697 l 362.8862,161.5674 c 5.8745,2.6156 12.7542,-0.025 15.3696,-5.8999 2.6158,-5.8746 -0.025,-12.7542 -5.8999,-15.3698 z"
         clip-path="url(#991507998655-clipPath1)"
         id="path97"
         inkscape:connector-curvature="0"
         style="stroke:none" />
    </g>
    <g
       font-size="360"
       id="g99"
       style="font-size:360px;font-family:Arial;shape-rendering:geometricPrecision;text-rendering:optimizeLegibility">
      <path
         d="m 3257.8264,1164.7781 35.1289,-334.23013 c 0.6724,-6.39538 -3.9653,-12.12219 -10.3606,-12.79437 -6.3952,-0.67218 -12.122,3.96533 -12.7944,10.36066 l -35.1289,334.23014 c -0.6721,6.3953 3.9653,12.1222 10.3606,12.7943 6.3955,0.6722 12.1223,-3.9654 12.7944,-10.3606 z"
         clip-path="url(#991507998655-clipPath1)"
         id="path101"
         inkscape:connector-curvature="0"
         style="stroke:none" />
    </g>
    <g
       font-size="360"
       id="g103"
       style="font-size:360px;font-family:Arial;shape-rendering:geometricPrecision;text-rendering:optimizeLegibility">
      <path
         d="m 3267.0737,899.9649 c 4.7788,4.30286 12.1377,3.91718 16.4407,-0.86163 4.303,-4.77887 3.9172,-12.13782 -0.8616,-16.44067 L 2998.5313,626.83838 c -4.7789,-4.30286 -12.1377,-3.91718 -16.4407,0.86163 -4.303,4.77887 -3.9173,12.13776 0.8615,16.44068 z m 67.4768,-74.94055 c 4.7788,4.30286 12.1377,3.91724 16.4407,-0.86163 4.3027,-4.77887 3.9172,-12.13776 -0.8616,-16.44067 L 3066.0081,551.89789 c -4.7789,-4.30292 -12.138,-3.91724 -16.4407,0.86157 -4.303,4.77887 -3.9173,12.13782 0.8616,16.44067 z"
         clip-path="url(#991507998655-clipPath1)"
         id="path105"
         inkscape:connector-curvature="0"
         style="stroke:none" />
    </g>
    <g
       font-size="360"
       id="g107"
       style="font-size:360px;font-family:Arial;shape-rendering:geometricPrecision;text-rendering:optimizeLegibility">
      <path
         d="m 3283.7983,840.71796 390.3904,-82.98004 c 6.2901,-1.33698 10.3035,-7.51716 8.9666,-13.80726 -1.3372,-6.29004 -7.5174,-10.30346 -13.8074,-8.96649 l -390.3904,82.98004 c -6.29,1.33698 -10.3034,7.51722 -8.9665,13.80725 1.3371,6.29004 7.5173,10.30347 13.8073,8.9665 z"
         clip-path="url(#991507998655-clipPath1)"
         id="path109"
         inkscape:connector-curvature="0"
         style="stroke:none" />
    </g>
    <g
       font-size="360"
       id="g111"
       style="font-size:360px;font-family:Arial;shape-rendering:geometricPrecision;text-rendering:optimizeLegibility">
      <path
         d="M 4119.5708,1192.2094 3951.9365,901.85852 c -3.2153,-5.56903 -10.3332,-7.47632 -15.9021,-4.26105 -5.5691,3.21534 -7.4763,10.33326 -4.261,15.90229 l 167.6338,290.35084 c 3.2154,5.5691 10.3335,7.4763 15.9024,4.261 5.5693,-3.2154 7.4765,-10.3333 4.2612,-15.9022 z"
         clip-path="url(#991507998655-clipPath1)"
         id="path113"
         inkscape:connector-curvature="0"
         style="stroke:none" />
    </g>
    <g
       font-size="360"
       id="g115"
       style="font-size:360px;font-family:Arial;shape-rendering:geometricPrecision;text-rendering:optimizeLegibility">
      <path
         d="m 3067.7339,1462.5931 -335.9155,193.9411 c -5.5691,3.2152 -7.4764,10.3331 -4.2613,15.9022 3.2154,5.569 10.3333,7.4763 15.9024,4.261 l 335.9157,-193.9411 c 5.5689,-3.2152 7.4761,-10.3331 4.261,-15.9022 -3.2153,-5.5689 -10.3332,-7.4763 -15.9023,-4.261 z"
         clip-path="url(#991507998655-clipPath1)"
         id="path117"
         inkscape:connector-curvature="0"
         style="stroke:none" />
    </g>
    <g
       font-size="360"
       id="g119"
       style="font-size:360px;font-family:Arial;shape-rendering:geometricPrecision;text-rendering:optimizeLegibility">
      <path
         d="m 2749.28,1666.6157 c 0,-6.4305 -5.2107,-11.6412 -11.6411,-11.6412 -6.4306,0 -11.6413,5.2107 -11.6413,11.6412 l 0,560.2359 c 0,6.4304 5.2107,11.6411 11.6413,11.6411 6.4304,0 11.6411,-5.2107 11.6411,-11.6411 z m -100.8423,69.8627 c 0,-6.4305 -5.2106,-11.6412 -11.6413,-11.6412 -6.4304,0 -11.6411,5.2107 -11.6411,11.6412 l 0,420.5104 c 0,6.4306 5.2107,11.6413 11.6411,11.6413 6.4307,0 11.6413,-5.2107 11.6413,-11.6413 z"
         clip-path="url(#991507998655-clipPath1)"
         id="path121"
         inkscape:connector-curvature="0"
         style="stroke:none" />
    </g>
    <g
       font-size="360"
       id="g123"
       style="font-size:360px;font-family:Arial;shape-rendering:geometricPrecision;text-rendering:optimizeLegibility">
      <path
         d="m 2731.8184,2216.77 -485.1785,280.1177 c -5.5691,3.2153 -7.4763,10.3332 -4.261,15.9023 3.2153,5.5691 10.3333,7.4764 15.9021,4.261 l 485.1785,-280.1179 c 5.5691,-3.2153 7.4763,-10.3332 4.261,-15.9021 -3.2154,-5.5691 -10.3333,-7.4763 -15.9021,-4.261 z"
         clip-path="url(#991507998655-clipPath1)"
         id="path125"
         inkscape:connector-curvature="0"
         style="stroke:none" />
    </g>
    <g
       font-size="360"
       id="g127"
       style="font-size:360px;font-family:Arial;shape-rendering:geometricPrecision;text-rendering:optimizeLegibility">
      <path
         d="m 2246.6399,2517.051 c 5.5691,3.2154 12.687,1.3081 15.9021,-4.261 3.2153,-5.5691 1.3081,-12.687 -4.261,-15.9023 L 1773.1027,2216.77 c -5.569,-3.2153 -12.6869,-1.3081 -15.9023,4.261 -3.2153,5.5689 -1.3079,12.687 4.261,15.9021 z m -10.0818,-122.2634 c 5.5691,3.2153 12.687,1.3081 15.9023,-4.261 3.2154,-5.5691 1.3082,-12.687 -4.2609,-15.9023 l -364.1728,-210.2552 c -5.5689,-3.2153 -12.687,-1.3081 -15.9022,4.261 -3.2153,5.5691 -1.3081,12.687 4.261,15.9024 z"
         clip-path="url(#991507998655-clipPath1)"
         id="path129"
         inkscape:connector-curvature="0"
         style="stroke:none" />
    </g>
    <g
       font-size="360"
       id="g131"
       style="font-size:360px;font-family:Arial;shape-rendering:geometricPrecision;text-rendering:optimizeLegibility">
      <path
         d="m 1778.9233,2226.8516 0,-560.2359 c 0,-6.4305 -5.2107,-11.6412 -11.6413,-11.6412 -6.4306,0 -11.6413,5.2107 -11.6413,11.6412 l 0,560.2359 c 0,6.4306 5.2107,11.6413 11.6413,11.6413 6.4306,0 11.6413,-5.2107 11.6413,-11.6413 z"
         clip-path="url(#991507998655-clipPath1)"
         id="path133"
         inkscape:connector-curvature="0"
         style="stroke:none" />
    </g>
    <g
       font-size="360"
       id="g135"
       style="font-size:360px;font-family:Arial;shape-rendering:geometricPrecision;text-rendering:optimizeLegibility">
      <path
         d="m 1761.4614,1656.5342 c -5.5691,3.2152 -7.4763,10.3331 -4.261,15.9022 3.2152,5.569 10.3332,7.4763 15.9023,4.261 l 485.1783,-280.1179 c 5.5691,-3.2152 7.4763,-10.3332 4.261,-15.9023 -3.2153,-5.569 -10.3333,-7.4763 -15.9021,-4.2609 z m 110.9241,52.4007 c -5.5691,3.2152 -7.4763,10.3333 -4.261,15.9023 3.2152,5.5691 10.3331,7.4763 15.9022,4.2609 l 364.1728,-210.2552 c 5.5691,-3.2152 7.4763,-10.3331 4.2609,-15.9022 -3.2153,-5.569 -10.3332,-7.4763 -15.9023,-4.261 z"
         clip-path="url(#991507998655-clipPath1)"
         id="path137"
         inkscape:connector-curvature="0"
         style="stroke:none" />
    </g>
    <g
       font-size="360"
       id="g139"
       style="font-size:360px;font-family:Arial;shape-rendering:geometricPrecision;text-rendering:optimizeLegibility">
      <path
         d="M 2743.4595,1656.5342 2258.281,1376.4163 c -5.5688,-3.2154 -12.6868,-1.3081 -15.9021,4.2609 -3.2153,5.5691 -1.3081,12.6871 4.261,15.9023 l 485.1785,280.1179 c 5.5688,3.2153 12.6867,1.308 15.9021,-4.261 3.2153,-5.5691 1.3081,-12.687 -4.261,-15.9022 z"
         clip-path="url(#991507998655-clipPath1)"
         id="path141"
         inkscape:connector-curvature="0"
         style="stroke:none" />
    </g>
    <g
       font-size="360"
       id="g143"
       style="font-size:360px;font-family:Arial;shape-rendering:geometricPrecision;text-rendering:optimizeLegibility">
      <path
         d="m 1761.4614,2216.77 -335.9156,193.9409 c -5.5691,3.2154 -7.4763,10.3333 -4.261,15.9021 3.2152,5.5691 10.3332,7.4764 15.9022,4.2613 l 335.9157,-193.9412 c 5.5691,-3.2153 7.4763,-10.3332 4.2609,-15.9021 -3.2152,-5.5691 -10.3332,-7.4763 -15.9022,-4.261 z"
         clip-path="url(#991507998655-clipPath1)"
         id="path145"
         inkscape:connector-curvature="0"
         style="stroke:none" />
    </g>
    <g
       font-size="360"
       id="g147"
       style="font-size:360px;font-family:Arial;shape-rendering:geometricPrecision;text-rendering:optimizeLegibility">
      <path
         d="m 1270.4624,2729.9912 0,337.2141 c 0,6.4304 5.2107,11.6411 11.6412,11.6411 6.4306,0 11.6413,-5.2107 11.6413,-11.6411 l 0,-337.2141 c 0,-6.4307 -5.2107,-11.6413 -11.6413,-11.6413 -6.4305,0 -11.6412,5.2106 -11.6412,11.6413 z"
         clip-path="url(#991507998655-clipPath1)"
         id="path149"
         inkscape:connector-curvature="0"
         style="stroke:none" />
    </g>
    <g
       font-size="360"
       id="g151"
       style="font-size:360px;font-family:Arial;shape-rendering:geometricPrecision;text-rendering:optimizeLegibility">
      <path
         d="m 1276.283,3057.1235 -485.17845,280.118 c -5.56903,3.2153 -7.47625,10.3332 -4.26098,15.9023 3.21533,5.5691 10.33325,7.4763 15.90228,4.261 l 485.17835,-280.1179 c 5.5691,-3.2154 7.4763,-10.3333 4.261,-15.9024 -3.2152,-5.5688 -10.3331,-7.4763 -15.9022,-4.261 z"
         clip-path="url(#991507998655-clipPath1)"
         id="path153"
         inkscape:connector-curvature="0"
         style="stroke:none" />
    </g>
    <g
       font-size="360"
       id="g155"
       style="font-size:360px;font-family:Arial;shape-rendering:geometricPrecision;text-rendering:optimizeLegibility">
      <path
         d="M 802.74579,3337.2415 476.8302,3149.074 c -5.56903,-3.2154 -12.68698,-1.3081 -15.90225,4.261 -3.2153,5.5691 -1.30805,12.687 4.26098,15.9023 l 325.91562,188.1675 c 5.56903,3.2153 12.68695,1.3081 15.90229,-4.261 3.21527,-5.5691 1.30804,-12.687 -4.26105,-15.9023 z"
         clip-path="url(#991507998655-clipPath1)"
         id="path157"
         inkscape:connector-curvature="0"
         style="stroke:none" />
    </g>
    <g
       font-size="360"
       id="g159"
       style="font-size:360px;font-family:Arial;shape-rendering:geometricPrecision;text-rendering:optimizeLegibility">
      <path
         d="m 323.38803,2844.1836 0,-337.2141 c 0,-6.4307 -5.21069,-11.6414 -11.64126,-11.6414 -6.43058,0 -11.64127,5.2107 -11.64127,11.6414 l 0,337.2141 c 0,6.4304 5.21069,11.6411 11.64127,11.6411 6.43057,0 11.64126,-5.2107 11.64126,-11.6411 z"
         clip-path="url(#991507998655-clipPath1)"
         id="path161"
         inkscape:connector-curvature="0"
         style="stroke:none" />
    </g>
    <g
       font-size="360"
       id="g163"
       style="font-size:360px;font-family:Arial;shape-rendering:geometricPrecision;text-rendering:optimizeLegibility">
      <path
         d="m 317.56738,2517.051 485.17841,-280.1179 c 5.56903,-3.2151 7.47626,-10.3332 4.26098,-15.9021 -3.21527,-5.5691 -10.33319,-7.4763 -15.90222,-4.261 l -485.17843,280.1177 c -5.56903,3.2153 -7.47626,10.3332 -4.26099,15.9023 3.21527,5.5691 10.33322,7.4764 15.90225,4.261 z"
         clip-path="url(#991507998655-clipPath1)"
         id="path165"
         inkscape:connector-curvature="0"
         style="stroke:none" />
    </g>
    <g
       font-size="360"
       id="g167"
       style="font-size:360px;font-family:Arial;shape-rendering:geometricPrecision;text-rendering:optimizeLegibility">
      <path
         d="M 1138.6614,2410.7109 802.74579,2216.77 c -5.56903,-3.2153 -12.68695,-1.3081 -15.90222,4.261 -3.21534,5.5689 -1.30805,12.6868 4.26098,15.9021 l 335.91555,193.9412 c 5.5691,3.2151 12.6871,1.3078 15.9024,-4.2613 3.2152,-5.5688 1.308,-12.6867 -4.2611,-15.9021 z"
         clip-path="url(#991507998655-clipPath1)"
         id="path169"
         inkscape:connector-curvature="0"
         style="stroke:none" />
    </g>
    <g
       font-size="360"
       id="g171"
       style="font-size:360px;font-family:Arial;shape-rendering:geometricPrecision;text-rendering:optimizeLegibility">
      <path
         d="m 734.86267,2255.9622 c 0,6.4306 5.21069,11.6413 11.6413,11.6413 6.43054,0 11.64123,-5.2107 11.64123,-11.6413 l 0,-366.8355 c 0,-6.4307 -5.21069,-11.6413 -11.64123,-11.6413 -6.43061,0 -11.6413,5.2106 -11.6413,11.6413 z m 100.84247,0 c 0,6.4306 5.21069,11.6413 11.6413,11.6413 6.43054,0 11.64123,-5.2107 11.64123,-11.6413 l 0,-366.8355 c 0,-6.4307 -5.21069,-11.6413 -11.64123,-11.6413 -6.43061,0 -11.6413,5.2106 -11.6413,11.6413 z"
         clip-path="url(#991507998655-clipPath1)"
         id="path173"
         inkscape:connector-curvature="0"
         style="stroke:none" />
    </g>
    <g
       font-size="360"
       id="g175"
       style="font-size:360px;font-family:Arial;shape-rendering:geometricPrecision;text-rendering:optimizeLegibility">
      <path
         d="m 4109.4893,1198.0299 -1.2168,11.5775 628.9023,145.8433 -56.2085,-97.3561 -56.2085,-97.3561 -514.0517,25.714 z"
         clip-path="url(#991507998655-clipPath1)"
         id="path177"
         inkscape:connector-curvature="0"
         style="stroke:none" />
    </g>
    <g
       font-size="360"
       id="g179"
       style="font-size:360px;font-family:Arial;shape-rendering:geometricPrecision;text-rendering:optimizeLegibility">
      <path
         d="m 4656.5742,1262.4111 170.4361,295.204 c 3.2153,5.569 10.333,7.4762 15.9023,4.261 5.5688,-3.2153 7.4761,-10.3333 4.2607,-15.9023 l -170.436,-295.2039 c -3.2153,-5.569 -10.333,-7.4763 -15.9019,-4.261 -5.5693,3.2153 -7.4765,10.3333 -4.2612,15.9022 z"
         clip-path="url(#991507998655-clipPath1)"
         id="path181"
         inkscape:connector-curvature="0"
         style="stroke:none" />
    </g>
    <g
       font-size="360"
       id="g183"
       style="font-size:360px;font-family:Arial;shape-rendering:geometricPrecision;text-rendering:optimizeLegibility">
      <path
         d="m 4935.1323,1964.7906 0,337.2143 c 0,6.4304 5.211,11.6411 11.6416,11.6411 6.4302,0 11.6411,-5.2107 11.6411,-11.6411 l 0,-337.2143 c 0,-6.4305 -5.2109,-11.6412 -11.6411,-11.6412 -6.4306,0 -11.6416,5.2107 -11.6416,11.6412 z"
         clip-path="url(#991507998655-clipPath1)"
         id="path185"
         inkscape:connector-curvature="0"
         style="stroke:none" />
    </g>
    <g
       font-size="360"
       id="g187"
       style="font-size:360px;font-family:Arial;shape-rendering:geometricPrecision;text-rendering:optimizeLegibility">
      <path
         d="m 4940.9531,2312.0864 485.1782,280.1179 c 5.5694,3.2151 12.6871,1.3079 15.9024,-4.2609 3.2153,-5.5691 1.3081,-12.6871 -4.2608,-15.9024 l -485.1787,-280.1179 c -5.5688,-3.2153 -12.687,-1.3081 -15.9023,4.261 -3.2148,5.5691 -1.3076,12.687 4.2612,15.9023 z"
         clip-path="url(#991507998655-clipPath1)"
         id="path189"
         inkscape:connector-curvature="0"
         style="stroke:none" />
    </g>
    <g
       font-size="360"
       id="g191"
       style="font-size:360px;font-family:Arial;shape-rendering:geometricPrecision;text-rendering:optimizeLegibility">
      <path
         d="m 5625.7075,3179.9231 410.3609,87.2244 c 6.29,1.3371 12.4702,-2.6763 13.8076,-8.9663 1.3369,-6.2901 -2.6768,-12.4705 -8.9668,-13.8074 l -410.3609,-87.2244 c -6.29,-1.3369 -12.4702,2.6765 -13.8076,8.9666 -1.3369,6.29 2.6768,12.4702 8.9668,13.8071 z"
         clip-path="url(#991507998655-clipPath1)"
         id="path193"
         inkscape:connector-curvature="0"
         style="stroke:none" />
    </g>
    <g
       font-size="360"
       id="g195"
       style="font-size:360px;font-family:Arial;shape-rendering:geometricPrecision;text-rendering:optimizeLegibility">
      <path
         d="m 5983.5288,3125.9868 c -3.2153,5.5691 -1.3081,12.687 4.2612,15.9024 5.5689,3.215 12.6871,1.3078 15.9019,-4.261 l 195.2119,-338.117 c 3.2153,-5.5691 1.3081,-12.687 -4.2607,-15.9023 -5.5694,-3.2151 -12.687,-1.3079 -15.9024,4.2612 z m 44.8784,123.9534 c -3.2153,5.5688 -1.3081,12.6868 4.2613,15.9021 5.5688,3.2153 12.6865,1.3081 15.9018,-4.261 l 280.1196,-485.1809 c 3.2154,-5.5691 1.3081,-12.687 -4.2612,-15.9021 -5.5688,-3.2153 -12.687,-1.3081 -15.9023,4.261 z"
         clip-path="url(#991507998655-clipPath1)"
         id="path197"
         inkscape:connector-curvature="0"
         style="stroke:none" />
    </g>
    <g
       font-size="360"
       id="g199"
       style="font-size:360px;font-family:Arial;shape-rendering:geometricPrecision;text-rendering:optimizeLegibility">
      <path
         d="m 6327.2593,2762.7903 -374.8501,-416.3145 c -4.3028,-4.7788 -11.6616,-5.1643 -16.4405,-0.8615 -4.7792,4.3029 -5.1645,11.6618 -0.8618,16.4406 l 374.8501,416.3145 c 4.3028,4.7788 11.6617,5.1645 16.4405,0.8616 4.7793,-4.303 5.1645,-11.6619 0.8618,-16.4407 z"
         clip-path="url(#991507998655-clipPath1)"
         id="path201"
         inkscape:connector-curvature="0"
         style="stroke:none" />
    </g>
    <g
       font-size="360"
       id="g203"
       style="font-size:360px;font-family:Arial;shape-rendering:geometricPrecision;text-rendering:optimizeLegibility">
      <path
         d="m 5420.3745,2583.3398 35.252,335.3287 c 0.6723,6.3955 6.3994,11.0327 12.7949,10.3603 6.395,-0.6721 11.0322,-6.3992 10.3603,-12.7944 l -35.2519,-335.3289 c -0.6724,-6.3952 -6.3994,-11.0327 -12.7949,-10.3603 -6.3951,0.6723 -11.0328,6.3991 -10.3604,12.7946 z"
         clip-path="url(#991507998655-clipPath1)"
         id="path205"
         inkscape:connector-curvature="0"
         style="stroke:none" />
    </g>
    <g
       font-size="360"
       id="g207"
       style="font-size:360px;font-family:Arial;shape-rendering:geometricPrecision;text-rendering:optimizeLegibility">
      <path
         d="m 5427.2173,2571.4878 c -5.8745,2.6152 -8.5156,9.4949 -5.8999,15.3696 2.6152,5.8745 9.4946,8.5156 15.3696,5.9002 l 511.8057,-227.8572 c 5.8745,-2.6155 8.5156,-9.4949 5.9004,-15.3696 -2.6158,-5.8748 -9.4952,-8.5157 -15.3697,-5.9002 z m 118.5854,57.5903 c -5.875,2.6155 -8.5156,9.4949 -5.9004,15.3697 2.6153,5.8745 9.4952,8.5156 15.3697,5.9001 l 356.6689,-158.7898 c 5.8745,-2.6155 8.5156,-9.4949 5.8999,-15.3696 -2.6152,-5.8748 -9.4946,-8.5156 -15.3696,-5.9002 z"
         clip-path="url(#991507998655-clipPath1)"
         id="path209"
         inkscape:connector-curvature="0"
         style="stroke:none" />
    </g>
    <g
       font-size="360"
       id="g211"
       style="font-size:360px;font-family:Arial;shape-rendering:geometricPrecision;text-rendering:optimizeLegibility">
      <path
         d="m 6027.854,3260.4956 130.2686,292.5879 c 2.6157,5.8745 9.4951,8.5154 15.3701,5.8999 5.8745,-2.6157 8.5151,-9.4951 5.8999,-15.3699 l -130.2691,-292.5876 c -2.6152,-5.8748 -9.4951,-8.5156 -15.3696,-5.8999 -5.8745,2.6155 -8.5156,9.4951 -5.8999,15.3696 z"
         clip-path="url(#991507998655-clipPath1)"
         id="path213"
         inkscape:connector-curvature="0"
         style="stroke:none" />
    </g>
    <g
       font-size="360"
       id="g215"
       style="font-size:360px;font-family:Arial;shape-rendering:geometricPrecision;text-rendering:optimizeLegibility">
      <path
         d="m 5003.0156,2341.197 c 5.5689,-3.2153 7.4761,-10.3332 4.2608,-15.9021 -3.2149,-5.5691 -10.333,-7.4763 -15.9019,-4.261 l -335.8408,193.8977 c -5.5693,3.2154 -7.4766,10.3333 -4.2612,15.9021 3.2153,5.5691 10.3335,7.4764 15.9023,4.2613 z m -50.4214,-87.332 c 5.5694,-3.2153 7.4766,-10.3333 4.2613,-15.9024 -3.2154,-5.5688 -10.3335,-7.4763 -15.9024,-4.2609 l -335.8408,193.8977 c -5.5688,3.2153 -7.4761,10.3332 -4.2607,15.9023 3.2148,5.5691 10.333,7.4763 15.9018,4.261 z"
         clip-path="url(#991507998655-clipPath1)"
         id="path217"
         inkscape:connector-curvature="0"
         style="stroke:none" />
    </g>
  </g>
</svg>
